<svg xmlns="http://www.w3.org/2000/svg" width="100" height="100" viewBox="0 0 100 100">
  <g id="Group_318" data-name="Group 318" transform="translate(-959 -778)">
    <circle id="Ellipse_4" data-name="Ellipse 4" cx="50" cy="50" r="50" transform="translate(959 778)" fill="#e8e5fc"/>
    <g id="Group_313" data-name="Group 313" transform="translate(980 800)">
      <svg xmlns="http://www.w3.org/2000/svg" width="60" height="60" viewBox="0 0 24 24" style="fill: rgba(108, 85, 249, 1);transform: ;msFilter:;"><path d="M16.604 11.048a5.67 5.67 0 0 0 .751-3.44c-.179-1.784-1.175-3.361-2.803-4.44l-1.105 1.666c1.119.742 1.8 1.799 1.918 2.974a3.693 3.693 0 0 1-1.072 2.986l-1.192 1.192 1.618.475C18.951 13.701 19 17.957 19 18h2c0-1.789-.956-5.285-4.396-6.952z"></path><path d="M9.5 12c2.206 0 4-1.794 4-4s-1.794-4-4-4-4 1.794-4 4 1.794 4 4 4zm0-6c1.103 0 2 .897 2 2s-.897 2-2 2-2-.897-2-2 .897-2 2-2zm1.5 7H8c-3.309 0-6 2.691-6 6v1h2v-1c0-2.206 1.794-4 4-4h3c2.206 0 4 1.794 4 4v1h2v-1c0-3.309-2.691-6-6-6z"></path></svg>
    </g>
  </g>
</svg>